<?xml version="1.0" standalone="no"?>
<!DOCTYPE svg PUBLIC "-//W3C//DTD SVG 20010904//EN"
 "http://www.w3.org/TR/2001/REC-SVG-20010904/DTD/svg10.dtd">
<svg version="1.0" xmlns="http://www.w3.org/2000/svg"
 width="493.000000pt" height="493.000000pt" viewBox="0 0 493.000000 493.000000"
 preserveAspectRatio="xMidYMid meet">
<metadata>
Created by potrace 1.11, written by Peter Selinger 2001-2013
</metadata>
<g transform="translate(0.000000,493.000000) scale(0.100000,-0.100000)"
fill="#000000" stroke="none">
<path d="M1720 4828 c-15 -52 -25 -124 -28 -190 -2 -60 -8 -108 -11 -108 -4 0
-34 5 -66 11 -84 15 -157 51 -213 103 -27 25 -53 46 -57 46 -12 0 2 -234 20
-326 16 -87 52 -200 79 -253 17 -32 17 -35 -8 -104 -48 -135 -57 -188 -63
-347 -4 -132 -2 -170 16 -257 12 -56 26 -114 31 -128 l9 -25 47 25 c26 14 58
25 70 25 l24 0 0 215 c0 118 5 248 11 290 l12 77 46 -44 c141 -136 291 -212
479 -245 125 -22 592 -25 721 -5 182 29 343 91 456 176 51 38 61 42 67 28 4
-9 7 -124 7 -254 l1 -238 23 0 c13 0 46 -11 72 -25 27 -13 50 -23 51 -22 1 1
12 39 23 84 124 486 -77 980 -505 1236 -250 150 -568 192 -859 112 l-90 -24
-70 36 c-100 51 -177 106 -219 154 -20 24 -36 46 -36 51 0 4 -4 8 -9 8 -5 0
-19 -37 -31 -82z"/>
<path d="M1955 3156 c-42 -19 -81 -64 -93 -108 -8 -30 -8 -38 3 -38 7 0 16 15
19 33 7 38 47 80 91 97 42 16 101 3 141 -32 41 -36 58 -30 23 8 -47 51 -122
67 -184 40z"/>
<path d="M2848 3150 c-41 -22 -75 -63 -57 -69 6 -2 17 6 25 17 8 11 34 28 59
38 38 14 52 15 84 5 47 -14 88 -53 99 -94 4 -17 14 -33 21 -35 11 -4 12 2 7
24 -13 51 -46 92 -90 113 -52 26 -100 26 -148 1z"/>
<path d="M1945 1789 c-191 -61 -364 -209 -449 -383 -72 -148 -86 -223 -86
-463 l0 -173 160 0 160 0 0 -45 0 -45 65 0 65 0 0 -79 0 -79 245 -239 c135
-131 262 -246 283 -256 26 -12 55 -17 98 -14 81 4 99 17 377 294 l227 227 0
73 0 73 60 0 60 0 0 45 0 45 160 0 160 0 0 193 c0 161 -3 207 -20 273 -67 261
-255 466 -502 548 -42 14 -83 26 -90 26 -9 0 -18 -21 -26 -59 -18 -87 -65
-171 -127 -230 -246 -233 -646 -103 -715 232 -13 65 -14 66 -105 36z"/>
</g>
</svg>
