<?xml version="1.0" encoding="UTF-8"?>
<svg width="1920px" height="1080px" viewBox="0 0 1920 1080" version="1.1" xmlns="http://www.w3.org/2000/svg" xmlns:xlink="http://www.w3.org/1999/xlink">
    <!-- Generator: Sketch 41.2 (35397) - http://www.bohemiancoding.com/sketch -->
    <title>After Noon Desktop</title>
    <desc>Created with Sketch.</desc>
    <defs>
        <linearGradient x1="50%" y1="3.27048788%" x2="50%" y2="100%" id="linearGradient-1">
            <stop stop-color="#FBC761" offset="0%"></stop>
            <stop stop-color="#F76B1C" offset="100%"></stop>
        </linearGradient>
        <circle id="path-2" cx="995.5" cy="460.5" r="72.5"></circle>
        <filter x="-50%" y="-50%" width="200%" height="200%" filterUnits="objectBoundingBox" id="filter-3">
            <feMorphology radius="20" operator="dilate" in="SourceAlpha" result="shadowSpreadOuter1"></feMorphology>
            <feOffset dx="0" dy="0" in="shadowSpreadOuter1" result="shadowOffsetOuter1"></feOffset>
            <feGaussianBlur stdDeviation="25" in="shadowOffsetOuter1" result="shadowBlurOuter1"></feGaussianBlur>
            <feColorMatrix values="0 0 0 0 1   0 0 0 0 0.864219555   0 0 0 0 0.436592487  0 0 0 1 0" type="matrix" in="shadowBlurOuter1" result="shadowMatrixOuter1"></feColorMatrix>
            <feMorphology radius="3" operator="dilate" in="SourceAlpha" result="shadowSpreadOuter2"></feMorphology>
            <feOffset dx="0" dy="0" in="shadowSpreadOuter2" result="shadowOffsetOuter2"></feOffset>
            <feGaussianBlur stdDeviation="15.5" in="shadowOffsetOuter2" result="shadowBlurOuter2"></feGaussianBlur>
            <feColorMatrix values="0 0 0 0 1   0 0 0 0 0.885534921   0 0 0 0 0.829762468  0 0 0 1 0" type="matrix" in="shadowBlurOuter2" result="shadowMatrixOuter2"></feColorMatrix>
            <feMerge>
                <feMergeNode in="shadowMatrixOuter1"></feMergeNode>
                <feMergeNode in="shadowMatrixOuter2"></feMergeNode>
            </feMerge>
        </filter>
        <linearGradient x1="58.8620765%" y1="-22.4237615%" x2="54.1891793%" y2="105.804331%" id="linearGradient-4">
            <stop stop-color="#FBDA61" offset="0%"></stop>
            <stop stop-color="#F88E32" stop-opacity="0" offset="100%"></stop>
        </linearGradient>
        <linearGradient x1="44.7100106%" y1="31.2246338%" x2="47.2579008%" y2="107.138397%" id="linearGradient-5">
            <stop stop-color="#FBDA61" offset="0%"></stop>
            <stop stop-color="#F89033" stop-opacity="0" offset="100%"></stop>
        </linearGradient>
        <linearGradient x1="76.0901093%" y1="8.71453039%" x2="76.0901093%" y2="123.951624%" id="linearGradient-6">
            <stop stop-color="#F89838" offset="0%"></stop>
            <stop stop-color="#FBDA61" stop-opacity="0" offset="100%"></stop>
        </linearGradient>
        <linearGradient x1="50%" y1="3.57541454%" x2="50%" y2="96.9846142%" id="linearGradient-7">
            <stop stop-color="#EA8B35" offset="0%"></stop>
            <stop stop-color="#E1832D" offset="100%"></stop>
        </linearGradient>
    </defs>
    <g id="Page-1" stroke="none" stroke-width="1" fill="none" fill-rule="evenodd">
        <g id="After-Noon-Desktop">
            <rect id="bg" fill="url(#linearGradient-1)" x="0" y="0" width="1920" height="1080"></rect>
            <g id="sun">
                <use fill="black" fill-opacity="1" filter="url(#filter-3)" xlink:href="#path-2"></use>
                <use fill="#FFE8BD" fill-rule="evenodd" xlink:href="#path-2"></use>
            </g>
            <polygon id="sm-mountain" fill="url(#linearGradient-4)" points="407 766.938764 576.556339 571.103273 628.964769 638.101654 701.56198 495 807.043952 641.609961 855.897273 652.372624 923.049988 745.696158 923.049988 766.938764"></polygon>
            <polygon id="la-mountain" fill="url(#linearGradient-5)" points="655 836.097891 710.904621 717.137475 825.148347 671.166476 950.67923 463.297608 1010.55649 554.445782 1042.62529 522.650237 1175.39323 283 1284.29216 472.270671 1355.40124 511.409101 1434.14575 648.343994 1518.7441 679.019678 1600.11121 754.022008 1611 839.5"></polygon>
            <rect id="water" fill="#F9C052" x="0" y="764" width="1920" height="316"></rect>
            <ellipse id="Oval-2" fill="#FFFFFF" opacity="0.109999999" cx="914.5" cy="1163" rx="782.5" ry="396"></ellipse>
            <ellipse id="Oval-2" fill="#FFFFFF" opacity="0.109999999" cx="916.548429" cy="1164.03665" rx="665.739529" ry="336.910995"></ellipse>
            <ellipse id="Oval-2" fill="#FFFFFF" opacity="0.109999999" cx="918.596859" cy="1165.0733" rx="516.204188" ry="261.235602"></ellipse>
            <ellipse id="Oval-2" fill="#FFFFFF" opacity="0.109999999" cx="918.596859" cy="1165.0733" rx="368.717277" ry="186.596859"></ellipse>
            <ellipse id="Oval-2" fill="#FFFFFF" opacity="0.109999999" cx="920.645288" cy="1166.10995" rx="231.472513" ry="117.141361"></ellipse>
            <polyline id="sm-mountain-reflection" fill="url(#linearGradient-6)" points="398 762 567.556339 894.186142 619.964769 848.963197 692.56198 945.554757 798.043952 846.595141 846.897273 839.330498 914.049988 776.338453 914.049988 762"></polyline>
            <polyline id="la-mountain-reflection" fill="url(#linearGradient-6)" points="690 763.662471 743.857904 821.793556 853.919067 844.257701 974.854153 945.834705 1032.53925 901.294325 1063.43399 916.831506 1191.34118 1033.93876 1296.25322 941.449937 1364.75894 922.324588 1440.62054 855.410113 1522.12167 840.420163 1600.50986 803.769595 1611 762"></polyline>
            <g id="tree" transform="translate(811.000000, 617.000000)">
                <rect id="Rectangle-2" fill="#D57A26" x="32.4210526" y="84.1358025" width="16.2105263" height="60.8641975"></rect>
                <polygon id="Triangle" fill="url(#linearGradient-7)" points="38.5 0 77 93.0864198 0 93.0864198"></polygon>
                <polygon id="Triangle-Copy" fill="url(#linearGradient-7)" points="38.5 32.625 77 65.25 0 65.25"></polygon>
                <polygon id="Triangle" fill="url(#linearGradient-7)" points="38.5 0 77 46.5432099 0 46.5432099"></polygon>
            </g>
            <g id="tree-reflection" opacity="0.397927989" transform="translate(849.500000, 834.500000) scale(1, -1) translate(-849.500000, -834.500000) translate(811.000000, 762.000000)">
                <polygon id="Triangle" fill="url(#linearGradient-7)" points="38.5 0 77 93.0864198 0 93.0864198"></polygon>
                <polygon id="Triangle-Copy" fill="url(#linearGradient-7)" points="38.5 32.625 77 65.25 0 65.25"></polygon>
                <polygon id="Triangle" fill="url(#linearGradient-7)" points="38.5 0 77 46.5432099 0 46.5432099"></polygon>
                <rect id="Rectangle-2" fill="#E1832C" x="32.4210526" y="84.1358025" width="16.2105263" height="60.8641975"></rect>
            </g>
        </g>
    </g>
</svg>