<?xml version="1.0" encoding="UTF-8"?>
<svg width="44px" height="44px" viewBox="0 0 44 44" version="1.1" xmlns="http://www.w3.org/2000/svg" xmlns:xlink="http://www.w3.org/1999/xlink">
    <!-- Generator: Sketch 41.2 (35397) - http://www.bohemiancoding.com/sketch -->
    <title>angellist</title>
    <desc>Created with Sketch.</desc>
    <defs></defs>
    <g id="Social-Icons" stroke="none" stroke-width="1" fill="none" fill-rule="evenodd">
        <g transform="translate(-480.000000, -60.000000)" id="angellist">
            <g transform="translate(480.000000, 60.000000)">
                <rect id="Rectangle" x="0" y="0" width="44" height="44"></rect>
                <path d="M22,44.019625 C34.1502645,44.019625 44,34.1698895 44,22.019625 C44,9.8693605 34.1502645,0.019625 22,0.019625 C9.8497355,0.019625 0,9.8693605 0,22.019625 C0,34.1698895 9.8497355,44.019625 22,44.019625 Z" id="Oval" fill="#93CECC"></path>
                <path d="M26.0433369,19.9757407 C26.7919499,17.9757199 27.3762041,16.3246029 27.7953357,15.0223899 C28.2144673,13.7201769 28.4240755,12.9207028 28.4240755,12.624051 C28.4240755,12.3053631 28.3542061,12.0581255 28.2144673,11.8822545 C28.0745587,11.706634 27.8817598,11.6185733 27.6360708,11.6185733 C27.3231441,11.6185733 27.0045295,11.8740745 26.6804814,12.3849934 C26.3560938,12.8959957 25.9986816,13.7176728 25.6074808,14.849357 L23.9309546,19.6130643 L26.0433369,19.9757407 L26.0433369,19.9757407 Z M23.8135434,24.4098256 C23.3329471,24.3878731 22.8773103,24.3384589 22.4472271,24.2614997 C22.0168893,24.1847909 21.6061625,24.0746942 21.2149617,23.9318773 C21.3935829,24.2837027 21.5528478,24.6351107 21.6927564,24.9867692 C21.8324952,25.338678 21.9468501,25.6848275 22.0365003,26.0252175 C22.3046868,25.6955951 22.586966,25.3963557 22.8831681,25.126915 C23.1791156,24.8576413 23.4892407,24.6186672 23.8135434,24.4098256 L23.8135434,24.4098256 Z M21.9190891,19.4153242 L20.1084272,14.2724134 C19.6390372,12.9646914 19.2757672,12.1105445 19.018787,11.7092215 C18.7613823,11.3080655 18.4822443,11.1075709 18.180439,11.1075709 C17.9457864,11.1075709 17.7555345,11.1957151 17.6104472,11.3712521 C17.4651052,11.5471231 17.3925192,11.7833427 17.3925192,12.080078 C17.3925192,12.5855714 17.5878649,13.4647592 17.9793203,14.7174746 C18.3704362,15.97019 18.9572374,17.6130434 19.7396389,19.6460349 C19.8067068,19.5251705 19.9014507,19.4400313 20.0246348,19.3905337 C20.1475642,19.3411195 20.3152338,19.3164125 20.5275587,19.3164125 C20.5946266,19.3164125 20.7287623,19.3220884 20.9299658,19.332856 C21.1310844,19.343874 21.4606507,19.371586 21.9190891,19.4153242 L21.9190891,19.4153242 Z M20.2760968,27.3769281 C20.466094,27.3769281 20.6391121,27.2919558 20.7958301,27.1214269 C20.9522934,26.951065 21.0305676,26.767014 21.0305676,26.5691904 C21.0305676,26.3605993 20.8768209,25.8743875 20.5694974,25.110388 C20.2619191,24.346639 19.8792929,23.5966624 19.4211091,22.860375 C19.0857699,22.310893 18.7560339,21.8961314 18.4319858,21.6158396 C18.1075982,21.3356314 17.8004445,21.1954855 17.5098454,21.1954855 C17.275108,21.1954855 17.0152413,21.3413908 16.7302454,21.6323667 C16.4452496,21.9235929 16.3027092,22.1955377 16.3027092,22.4482844 C16.3027092,22.7120491 16.442448,23.1076961 16.7218407,23.635142 C17.0010637,24.162588 17.3757098,24.723088 17.8451846,25.3164751 C18.3369872,25.9650357 18.8007741,26.4702787 19.236715,26.8329551 C19.6725711,27.1955481 20.018777,27.3769281 20.2760968,27.3769281 L20.2760968,27.3769281 Z M15.246518,26.981281 C15.4029813,27.168337 15.6209943,27.4428693 15.900387,27.8054623 C16.6380484,28.8055144 17.3195935,29.3054988 17.9457864,29.3054988 C18.1578566,29.3054988 18.3481086,29.2395576 18.5157782,29.1076752 C18.6833629,28.9757929 18.7672401,28.838485 18.7672401,28.6955846 C18.7672401,28.5308152 18.6554321,28.2562829 18.4319858,27.8714034 C18.2081151,27.4867744 17.9010462,27.0529816 17.5098454,26.5691904 C17.0627831,26.0087739 16.6909386,25.5994378 16.3949911,25.3411821 C16.098789,25.0831769 15.8610802,24.9537986 15.682459,24.9537986 C15.2910035,24.9537986 14.9305351,25.1598856 14.6010537,25.5719762 C14.2714025,25.9840668 14.1065345,26.4702787 14.1065345,27.0306952 C14.1065345,27.4815158 14.2210592,27.9842547 14.4501935,28.5389952 C14.6790731,29.0939027 15.0117806,29.6516482 15.4477215,30.2120647 C16.1071937,31.0802345 16.9255912,31.7475759 17.9038478,32.2146732 C18.8817648,32.6821043 19.9631701,32.9151521 21.1478938,32.9151521 C23.3274289,32.9151521 25.1520138,32.1157614 26.6217334,30.5170635 C28.0912832,28.9181152 28.8263977,26.9154233 28.8263977,24.5087374 C28.8263977,23.7727003 28.7702814,23.1875768 28.6587281,22.7532832 C28.5470049,22.3191565 28.3626108,22.0032232 28.1054608,21.8053997 C27.6470224,21.4320391 26.755954,21.0966572 25.4314065,20.7999219 C24.1070289,20.5032701 22.7238183,20.3548608 21.2820295,20.3548608 C20.8797074,20.3548608 20.5946266,20.4208019 20.4270419,20.5526843 C20.2593723,20.6845666 20.175495,20.9098517 20.175495,21.2284561 C20.175495,21.976012 20.6002297,22.51698 21.4496991,22.8521115 C22.2989138,23.1875768 23.6736348,23.3549338 25.5739469,23.3549338 L26.2613498,23.3549338 C26.4178132,23.3549338 26.5435442,23.4126114 26.6385428,23.5279668 C26.7332867,23.6433221 26.7978077,23.8164385 26.8313416,24.0472327 C26.6410897,24.2230201 26.2501436,24.4238486 25.6577393,24.6488833 C25.0651652,24.8740849 24.6124997,25.0966155 24.2998277,25.3164751 C23.6291493,25.8001828 23.0898899,26.3742049 22.6819646,27.0389587 C22.2736997,27.7040464 22.0700342,28.3329917 22.0700342,28.9263788 C22.0700342,29.2890552 22.1563734,29.7258529 22.3299009,30.2367718 C22.5030887,30.7478576 22.5896826,31.0637075 22.5896826,31.1846553 L22.5896826,31.3000106 L22.5561487,31.4483365 C22.0641764,31.415366 21.6760319,31.1326536 21.391036,30.5994483 C21.1060401,30.0664933 20.9634997,29.3549964 20.9634997,28.4647905 L20.9634997,28.3164646 C20.8738495,28.3934238 20.7874254,28.448347 20.703633,28.4813176 C20.6198407,28.5142881 20.5275587,28.5308152 20.4270419,28.5308152 C20.3263552,28.5308152 20.2313566,28.5225517 20.1419611,28.5060246 C20.0523109,28.4895811 19.9517941,28.4647905 19.8402407,28.4318199 C19.8737746,28.5529347 19.8989038,28.6708776 19.9156284,28.7862329 C19.9324378,28.9016717 19.9407576,28.9923199 19.9407576,29.0582611 C19.9407576,29.4648427 19.778776,29.813997 19.4546431,30.1049729 C19.1302554,30.3961992 18.7446578,30.5417706 18.2977652,30.5417706 C17.5937227,30.5417706 16.878389,30.2038847 16.151849,29.5280294 C15.4251392,28.8521741 15.0621239,28.1903417 15.0621239,27.541781 C15.0621239,27.4209167 15.0761317,27.3137414 15.1040625,27.2202552 C15.1317386,27.1271029 15.1794502,27.0472222 15.246518,26.981281 L15.246518,26.981281 Z M27.2504732,20.255949 C28.2564059,20.4430049 28.9661365,20.8603541 29.3796649,21.5087478 C29.7929387,22.1573085 30,23.1793132 30,24.5746786 C30,27.3439575 29.1533322,29.6104141 27.4599965,31.3742153 C25.7667457,33.1377661 23.6012185,34.019625 20.9634997,34.019625 C19.9240331,34.019625 18.9153837,33.8354905 17.9373817,33.4673885 C16.9591251,33.0992865 16.1183151,32.5855297 15.4141876,31.9262014 C14.6094584,31.2010989 14.0058478,30.4345953 13.6035257,29.6269411 C13.2011186,28.8192035 13,27.9925182 13,27.146134 C13,26.2010884 13.2068067,25.4705604 13.6202502,24.9537986 C14.0336088,24.4372872 14.6873929,24.0858792 15.5818572,23.8989067 C15.4141876,23.5141942 15.2910035,23.1900808 15.2129841,22.9263162 C15.1347949,22.6625515 15.0956578,22.4593024 15.0956578,22.3164855 C15.0956578,21.8219267 15.3610427,21.3166003 15.8919823,20.7999219 C16.4226672,20.2834106 16.9230443,20.0251549 17.3925192,20.0251549 C17.5937227,20.0251549 17.8057929,20.06088 18.0295788,20.1323302 C18.2531099,20.2040307 18.5099203,20.3218902 18.8007741,20.4867431 C17.9399286,18.0910752 17.314245,16.2422182 16.9230443,14.9400052 C16.5315888,13.6377922 16.336328,12.7394063 16.336328,12.244931 C16.336328,11.5636501 16.5148643,11.0225986 16.8727858,10.6212756 C17.2304527,10.2201196 17.7166521,10.019625 18.3312992,10.019625 C19.3817174,10.019625 20.7120378,12.3273157 22.3214962,16.9427806 C22.6007191,17.7339912 22.8132987,18.3438219 22.9585558,18.7724395 C23.0814852,18.4320495 23.2545032,17.9482583 23.4782891,17.3219006 C25.0877475,12.7504243 26.473505,10.4646862 27.6360708,10.4646862 C28.2061475,10.4646862 28.6613598,10.6542462 29.002472,11.0333662 C29.3433294,11.4124862 29.5138006,11.9209845 29.5138006,12.5581098 C29.5138006,13.0418175 29.3266049,13.926264 28.9521286,15.2119499 C28.5774826,16.4977194 28.0104622,18.1789689 27.2504732,20.255949 L27.2504732,20.255949 Z" id="Shape" fill="#000000"></path>
            </g>
        </g>
    </g>
</svg>