<?xml version="1.0" encoding="UTF-8"?>
<svg width="54px" height="70px" viewBox="0 0 54 70" version="1.1" xmlns="http://www.w3.org/2000/svg" xmlns:xlink="http://www.w3.org/1999/xlink">
    <!-- Generator: Sketch 41.2 (35397) - http://www.bohemiancoding.com/sketch -->
    <title>Article</title>
    <desc>Created with Sketch.</desc>
    <defs>
        <path d="M48,28.9644426 L48,66.0077996 C48,69.3172005 45.3164587,72 41.9936134,72 L6.00638655,72 C2.68915086,72 0,69.311214 0,66.0077996 L0,13.9922004 C0,10.6827995 2.68354127,8 6.00638655,8 L26.9866329,8" id="path-1"></path>
        <mask id="mask-2" maskContentUnits="userSpaceOnUse" maskUnits="objectBoundingBox" x="-3" y="-3" width="54" height="70">
            <rect x="-3" y="5" width="54" height="70" fill="white"></rect>
            <use xlink:href="#path-1" fill="black"></use>
        </mask>
        <path d="M18.93286,24.4757989 L33.0820292,10.3266297 C34.6402418,8.76841703 37.1651086,8.76692199 38.7248163,10.3266297 L52.8739855,24.4757989 L35.9034227,24.4757989 L18.93286,24.4757989 Z" id="path-3"></path>
        <mask id="mask-4" maskContentUnits="userSpaceOnUse" maskUnits="objectBoundingBox" x="0" y="0" width="33.9411255" height="21.8783356" fill="white">
            <use xlink:href="#path-3"></use>
        </mask>
    </defs>
    <g id="Page-1" stroke="none" stroke-width="1" fill="none" fill-rule="evenodd">
        <g id="Artboard-1" transform="translate(-872.000000, -385.000000)">
            <g id="Article" transform="translate(875.000000, 380.000000)">
                <g id="Rectangle-43">
                    <use fill="#FFFFFF" fill-rule="evenodd" xlink:href="#path-1"></use>
                    <use stroke="#B7A79F" mask="url(#mask-2)" stroke-width="6" xlink:href="#path-1"></use>
                </g>
                <use id="Rectangle-44-Copy" stroke="#B7A79F" mask="url(#mask-4)" stroke-width="6" fill="#EBDDD7" transform="translate(35.903423, 20.096577) scale(-1, -1) rotate(45.000000) translate(-35.903423, -20.096577) " xlink:href="#path-3"></use>
                <rect id="Rectangle-47" fill="#FF5555" x="6" y="27" width="12" height="3" rx="1.5"></rect>
                <rect id="Rectangle-47-Copy" fill="#EBDDD7" x="6" y="40" width="18" height="3" rx="1.5"></rect>
                <rect id="Rectangle-47-Copy-2" fill="#EBDDD7" x="6" y="47" width="12" height="3" rx="1.5"></rect>
                <rect id="Rectangle-47-Copy-3" fill="#EBDDD7" x="6" y="54" width="30" height="3" rx="1.5"></rect>
            </g>
        </g>
    </g>
</svg>