<?xml version="1.0" encoding="UTF-8"?>
<svg width="435px" height="376px" viewBox="0 0 435 376" version="1.1" xmlns="http://www.w3.org/2000/svg" xmlns:xlink="http://www.w3.org/1999/xlink">
    <!-- Generator: Sketch 41.2 (35397) - http://www.bohemiancoding.com/sketch -->
    <title>imac2</title>
    <desc>Created with Sketch.</desc>
    <defs>
        <path d="M15.8365384,45.2289521 C18.0576922,36.7246766 19.8173077,0 19.8173077,0 L110.682692,0 C110.682692,0 112.555584,36.5796886 115.213589,45.2289521 C117.871595,53.8782155 125.221154,58.4256219 129.663462,61.7642289 L0.836538462,61.7642289 C5.27884615,58.4256219 13.6153846,53.7332275 15.8365384,45.2289521 Z" id="path-1"></path>
        <path d="M0,10.016582 C0,4.48457654 4.4828063,0 10.0335589,0 L424.966441,0 C430.507822,0 435,4.48613694 435,10.016582 L435,283.781592 L0,283.781592 L0,10.016582 Z M0,283.781592 L435,283.781592 L435,317.171716 C435,322.701062 430.517195,327.183483 424.966441,327.183483 L10.0335589,327.183483 C4.49217732,327.183483 0,322.702189 0,317.171716 L0,283.781592 Z" id="path-3"></path>
        <path d="M0,10.016582 C0,4.48457654 4.4828063,0 10.0335589,0 L424.966441,0 C430.507822,0 435,4.48613694 435,10.016582 L435,283.781592 L0,283.781592 L0,10.016582 Z M0,283.781592 L435,283.781592 L435,317.171716 C435,322.701062 430.517195,327.183483 424.966441,327.183483 L10.0335589,327.183483 C4.49217732,327.183483 0,322.702189 0,317.171716 L0,283.781592 Z" id="path-5"></path>
        <path d="M0,10.016582 C0,4.48457654 4.4828063,0 10.0335589,0 L424.966441,0 C430.507822,0 435,4.48613694 435,10.016582 L435,283.781592 L0,283.781592 L0,10.016582 Z M0,283.781592 L435,283.781592 L435,317.171716 C435,322.701062 430.517195,327.183483 424.966441,327.183483 L10.0335589,327.183483 C4.49217732,327.183483 0,322.702189 0,317.171716 L0,283.781592 Z" id="path-7"></path>
        <path d="M0,10.016582 C0,4.48457654 4.4828063,0 10.0335589,0 L424.966441,0 C430.507822,0 435,4.48613694 435,10.016582 L435,283.781592 L0,283.781592 L0,10.016582 Z M0,283.781592 L435,283.781592 L435,317.171716 C435,322.701062 430.517195,327.183483 424.966441,327.183483 L10.0335589,327.183483 C4.49217732,327.183483 0,322.702189 0,317.171716 L0,283.781592 Z" id="path-9"></path>
        <path d="M0,10.016582 C0,4.48457654 4.4828063,0 10.0335589,0 L424.966441,0 C430.507822,0 435,4.48613694 435,10.016582 L435,283.781592 L0,283.781592 L0,10.016582 Z M0,283.781592 L435,283.781592 L435,317.171716 C435,322.701062 430.517195,327.183483 424.966441,327.183483 L10.0335589,327.183483 C4.49217732,327.183483 0,322.702189 0,317.171716 L0,283.781592 Z" id="path-11"></path>
    </defs>
    <g id="Page-1" stroke="none" stroke-width="1" fill="none" fill-rule="evenodd">
        <g id="imac2">
            <g id="Page-1">
                <g id="iMac">
                    <g id="imac">
                        <g id="Page-1">
                            <g id="imac">
                                <g id="Page-1">
                                    <g id="iMac">
                                        <g id="Page-1">
                                            <g id="Apple-Device-Family">
                                                <g id="//-iMac-27">
                                                    <g id="::-stand" transform="translate(150.576923, 305.482537)">
                                                        <rect id="Rectangle-80" fill="#B2B2B2" x="2.84217094e-14" y="66.7721393" width="133.846154" height="3.33860697"></rect>
                                                        <path d="M1.02321657,64.0922537 C1.51412666,62.8065211 3.03613542,61.7642289 4.42210891,61.7642289 L129.424045,61.7642289 C130.810291,61.7642289 132.339571,62.8262778 132.822937,64.0922537 L133.846154,66.7721393 L2.84217094e-14,66.7721393 L1.02321657,64.0922537 Z" id="Rectangle-77" fill="#C3C3C3"></path>
                                                        <g id="Mask" transform="translate(1.673077, 0.000000)" fill="#D8D8D8">
                                                            <path d="M15.8365384,45.2289521 C18.0576922,36.7246766 19.8173077,0 19.8173077,0 L110.682692,0 C110.682692,0 112.555584,36.5796886 115.213589,45.2289521 C117.871595,53.8782155 125.221154,58.4256219 129.663462,61.7642289 L0.836538462,61.7642289 C5.27884615,58.4256219 13.6153846,53.7332275 15.8365384,45.2289521 Z" id="path-1"></path>
                                                        </g>
                                                        <g id="Rectangle-77-Clipped" transform="translate(1.673077, 0.000000)">
                                                            <g id="Group">
                                                                <g id="Rectangle-77-Clipped">
                                                                    <g>
                                                                        <mask id="mask-2" fill="white">
                                                                            <use xlink:href="#path-1"></use>
                                                                        </mask>
                                                                        <g id="path-1"></g>
                                                                        <rect id="Rectangle-77" fill="#C1C1C1" mask="url(#mask-2)" x="15.0576923" y="21.7009453" width="100.384615" height="3.33860697"></rect>
                                                                    </g>
                                                                </g>
                                                            </g>
                                                        </g>
                                                    </g>
                                                    <g id="::-base">
                                                        <g id="Combined-Shape" fill="#D8D8D8">
                                                            <path d="M0,10.016582 C0,4.48457654 4.4828063,0 10.0335589,0 L424.966441,0 C430.507822,0 435,4.48613694 435,10.016582 L435,283.781592 L0,283.781592 L0,10.016582 Z M0,283.781592 L435,283.781592 L435,317.171716 C435,322.701062 430.517195,327.183483 424.966441,327.183483 L10.0335589,327.183483 C4.49217732,327.183483 0,322.702189 0,317.171716 L0,283.781592 Z" id="path-3"></path>
                                                        </g>
                                                        <g id="Combined-Shape-Clipped">
                                                            <g>
                                                                <mask id="mask-4" fill="white">
                                                                    <use xlink:href="#path-3"></use>
                                                                </mask>
                                                                <g id="path-3"></g>
                                                                <rect id="Combined-Shape" fill="#000000" mask="url(#mask-4)" x="0" y="0" width="435" height="283.781592"></rect>
                                                            </g>
                                                        </g>
                                                        <g id="logo-Clipped">
                                                            <g>
                                                                <mask id="mask-6" fill="white">
                                                                    <use xlink:href="#path-5"></use>
                                                                </mask>
                                                                <g id="path-5"></g>
                                                                <path d="M216.261277,301.461696 C216.838537,301.681916 217.729862,301.974892 217.729862,301.974892 L219.699638,301.31013 C219.699638,301.31013 220.275638,301.148904 220.798217,301.148904 C221.320796,301.148904 222.506023,301.440324 223.033973,301.823689 C223.561924,302.207055 224.004254,302.805876 224.004254,302.805876 C224.004254,302.805876 222.83617,303.502565 222.48596,304.523396 C222.135751,305.544226 222.202039,305.894902 222.202039,305.894902 C222.202039,305.894902 222.176539,307.448316 223.013546,308.317317 C223.850553,309.186316 224.433418,309.383276 224.433418,309.383276 C224.433418,309.383276 224.124593,310.510676 223.537651,311.390032 C222.950707,312.269388 222.550723,312.77848 222.550723,312.77848 C222.550723,312.77848 221.872787,313.518444 221.359096,313.673153 C220.845404,313.827863 221.028916,313.815258 220.775866,313.815258 C220.522818,313.815258 219.99898,313.704223 219.99898,313.704223 L218.987812,313.333429 C218.987812,313.333429 218.393574,313.149273 217.981088,313.149273 C217.568603,313.149273 216.792278,313.369195 216.792278,313.369195 C216.792278,313.369195 215.963826,313.684173 215.705075,313.749714 C215.446321,313.815258 215.246959,313.829055 215.151391,313.829055 C215.055822,313.829055 214.715593,313.825284 214.38485,313.631763 C214.054106,313.438244 213.661682,313.188446 213.093873,312.440939 C212.526063,311.69343 211.271529,309.922212 210.89708,307.402889 C210.52263,304.883568 211.445724,303.439238 211.445724,303.439238 C211.445724,303.439238 212.520359,301.234859 214.993547,301.191882 C215.496087,301.183149 215.684017,301.241478 216.261277,301.461696 Z M217.611313,300.984831 C217.611313,300.984831 217.42767,299.421293 218.576255,298.34094 C219.724839,297.260588 220.968596,297.13602 220.968596,297.13602 C220.968596,297.13602 221.22357,298.128232 220.257731,299.608624 C219.291892,301.089017 217.611313,300.984831 217.611313,300.984831 Z" id="logo" fill="#464646" mask="url(#mask-6)"></path>
                                                            </g>
                                                        </g>
                                                        <g id="camera-on-light-Clipped">
                                                            <g>
                                                                <mask id="mask-8" fill="white">
                                                                    <use xlink:href="#path-7"></use>
                                                                </mask>
                                                                <g id="path-7"></g>
                                                                <rect id="camera-on-light" fill="#61FFB2" mask="url(#mask-8)" x="225.865385" y="10.0158209" width="3.34615385" height="3.33860697" rx="1"></rect>
                                                            </g>
                                                        </g>
                                                        <g id="camera-Clipped">
                                                            <g>
                                                                <mask id="mask-10" fill="white">
                                                                    <use xlink:href="#path-9"></use>
                                                                </mask>
                                                                <g id="path-9"></g>
                                                                <rect id="camera" fill="#5C5C5C" mask="url(#mask-10)" x="214.153846" y="8.34651741" width="6.69230769" height="6.67721393" rx="2"></rect>
                                                            </g>
                                                        </g>
                                                        <g id="microphone-Clipped">
                                                            <g>
                                                                <mask id="mask-12" fill="white">
                                                                    <use xlink:href="#path-11"></use>
                                                                </mask>
                                                                <g id="path-11"></g>
                                                                <rect id="microphone" fill="#545454" mask="url(#mask-12)" x="205.034622" y="10.0158209" width="3.34615385" height="3.33860697" rx="1"></rect>
                                                            </g>
                                                        </g>
                                                    </g>
                                                    <g id="::-screen" transform="translate(23.423077, 23.370249)" fill="#FFFFFF">
                                                        <rect id="Rectangle-71" x="0" y="1.42108547e-14" width="388.153846" height="237.041095"></rect>
                                                    </g>
                                                </g>
                                            </g>
                                        </g>
                                    </g>
                                </g>
                            </g>
                        </g>
                    </g>
                    <g id="server.js" transform="translate(26.000000, 30.000000)">
                        <g id="Base-+-Header">
                            <rect id="Base" fill="#353B46" x="0" y="6.83168614" width="237" height="174.207997" rx="5"></rect>
                            <g id="Header">
                                <path d="M5.0047638,0 C2.24070908,0 0,2.24537346 0,5.00411223 L0,13.2363919 L237,13.2363919 L237,5.00411223 C237,2.24041736 234.767879,0 231.995236,0 L5.0047638,0 Z" id="Base" fill="#EEF1F5"></path>
                                <g id="Options" transform="translate(3.462662, 3.842823)">
                                    <ellipse id="Icon" fill="#EF534A" cx="2.11607143" cy="2.34839211" rx="2.11607143" ry="2.34839211"></ellipse>
                                    <ellipse id="Icon" fill="#EEC04A" cx="9.42613636" cy="2.34839211" rx="2.11607143" ry="2.34839211"></ellipse>
                                    <ellipse id="Icon" fill="#97D272" cx="16.7362013" cy="2.34839211" rx="2.11607143" ry="2.34839211"></ellipse>
                                </g>
                                <text id="server.js" fill="#525355" font-family="MyriadPro-Regular, Myriad Pro" font-size="5" font-weight="normal">
                                    <tspan x="110.437615" y="8.26486486">server.js</tspan>
                                </text>
                            </g>
                        </g>
                        <g id="Line-Numbers" opacity="0.8" transform="translate(5.000000, 20.000000)" font-size="4" font-family="AndaleMono, Andale Mono" fill="#858585" font-weight="normal">
                            <text id="1">
                                <tspan x="2.60285613" y="4">1</tspan>
                            </text>
                            <text id="2">
                                <tspan x="2.60285613" y="12">2</tspan>
                            </text>
                            <text id="3">
                                <tspan x="2.60285613" y="20">3</tspan>
                            </text>
                            <text id="4">
                                <tspan x="2.60285613" y="28">4</tspan>
                            </text>
                            <text id="5">
                                <tspan x="2.60285613" y="36">5</tspan>
                            </text>
                            <text id="6">
                                <tspan x="2.60285613" y="44">6</tspan>
                            </text>
                            <text id="7">
                                <tspan x="2.60285613" y="52">7</tspan>
                            </text>
                            <text id="8">
                                <tspan x="2.60285613" y="60">8</tspan>
                            </text>
                            <text id="9">
                                <tspan x="2.60285613" y="68">9</tspan>
                            </text>
                            <text id="10">
                                <tspan x="0.2024655" y="76">10</tspan>
                            </text>
                            <text id="11">
                                <tspan x="0.2024655" y="84">11</tspan>
                            </text>
                            <text id="12">
                                <tspan x="0.2024655" y="92">12</tspan>
                            </text>
                            <text id="13">
                                <tspan x="0.2024655" y="100">13</tspan>
                            </text>
                            <text id="14">
                                <tspan x="0.2024655" y="108">14</tspan>
                            </text>
                            <text id="15">
                                <tspan x="0.2024655" y="116">15</tspan>
                            </text>
                            <text id="16">
                                <tspan x="0.2024655" y="124">16</tspan>
                            </text>
                            <text id="17">
                                <tspan x="0.2024655" y="132">17</tspan>
                            </text>
                            <text id="18">
                                <tspan x="0.2024655" y="140">18</tspan>
                            </text>
                            <text id="19">
                                <tspan x="0.2024655" y="148">19</tspan>
                            </text>
                        </g>
                        <g id="//server.js-var-app" transform="translate(15.000000, 21.000000)" font-size="3" font-family="AndaleMono, Andale Mono" fill="#E2E7ED" font-weight="normal">
                            <text id="//server.js">
                                <tspan x="0.6107784" y="3">//server.js</tspan>
                            </text>
                            <text id="var-app-=-require(‘./app’);">
                                <tspan x="0.6107784" y="11">var app = require(‘./app’);</tspan>
                            </text>
                            <text id="var-https-=-require(‘https’);">
                                <tspan x="0.6107784" y="19">var https = require(‘https’);</tspan>
                            </text>
                            <text id="var-http-=-require(‘http’);">
                                <tspan x="0.6107784" y="27">var http = require(‘http’);</tspan>
                            </text>
                            <text id="var-fs-=-require(‘fs’);">
                                <tspan x="0.6107784" y="35">var fs = require(‘fs’);</tspan>
                            </text>
                            <text id="var-port-=-443;">
                                <tspan x="0.6107784" y="51">var port = 443;</tspan>
                            </text>
                            <text id="var-httpport-=-80;">
                                <tspan x="0.6107784" y="59">var httpport = 80;</tspan>
                            </text>
                            <text id="//Create-a-https-server-with-https-connection">
                                <tspan x="0.6107784" y="67">//Create a https server with https connection</tspan>
                            </text>
                            <text id="https.createServer({">
                                <tspan x="0.6107784" y="75">https.createServer({</tspan>
                            </text>
                            <text id="key:-fs.readFileSync(‘key.pem’),">
                                <tspan x="0.6107784" y="83">key: fs.readFileSync(‘key.pem’),</tspan>
                            </text>
                            <text id="cert:-fs.readFileSync(‘cert.pem’)">
                                <tspan x="0.6107784" y="91">cert: fs.readFileSync(‘cert.pem’)</tspan>
                            </text>
                            <text id="},-app).listen(port,-function()-{">
                                <tspan x="0.6107784" y="99">}, app).listen(port, function() {</tspan>
                            </text>
                            <text id="console.log(‘Express-server-listening-on-port-‘-+-port);">
                                <tspan x="0.6107784" y="107">console.log(‘Express server listening on port ‘ + port);</tspan>
                            </text>
                            <text id="});">
                                <tspan x="0.6107784" y="115">});</tspan>
                            </text>
                            <text id="http.createServer(app).listen(httpport,-function()-{">
                                <tspan x="0.6107784" y="131">http.createServer(app).listen(httpport, function() {</tspan>
                            </text>
                            <text id="console.log(‘Express-server-listening-on-port-‘-+-httpport);">
                                <tspan x="0.6107784" y="139">console.log(‘Express server listening on port ‘ + httpport);</tspan>
                            </text>
                            <text id="});">
                                <tspan x="0.6107784" y="147">});</tspan>
                            </text>
                        </g>
                    </g>
                    <g id="app.js" transform="translate(186.000000, 25.000000)">
                        <g id="Base-+-Header">
                            <rect id="Base" fill="#353B46" x="0" y="8.67098626" width="220" height="221.11015" rx="5"></rect>
                            <g id="Header">
                                <path d="M5.00836134,0 C2.24231975,0 0,2.23091505 0,4.99507868 L0,16.8000359 L220,16.8000359 L220,4.99507868 C220,2.2363729 217.768941,0 214.991639,0 L5.00836134,0 Z" id="Base" fill="#EEF1F5"></path>
                                <g id="Options" transform="translate(3.214286, 4.877430)">
                                    <ellipse id="Icon" fill="#EF534A" cx="1.96428571" cy="2.98065153" rx="1.96428571" ry="2.98065153"></ellipse>
                                    <ellipse id="Icon" fill="#EEC04A" cx="8.75" cy="2.98065153" rx="1.96428571" ry="2.98065153"></ellipse>
                                    <ellipse id="Icon" fill="#97D272" cx="15.5357143" cy="2.98065153" rx="1.96428571" ry="2.98065153"></ellipse>
                                </g>
                                <text id="app.js" fill="#525355" font-family="MyriadPro-Regular, Myriad Pro" font-size="5" font-weight="normal">
                                    <tspan x="104.164305" y="9.41309771">app.js</tspan>
                                </text>
                            </g>
                        </g>
                        <g id="Line-Numbers" opacity="0.8" transform="translate(4.000000, 25.000000)" font-size="4" font-family="AndaleMono, Andale Mono" font-weight="normal">
                            <text id="1" fill="#858585">
                                <tspan x="2.88532366" y="4.3846154">1</tspan>
                            </text>
                            <text id="2" fill="#858585">
                                <tspan x="2.88532366" y="12.3846154">2</tspan>
                            </text>
                            <text id="3" fill="#858585">
                                <tspan x="2.88532366" y="20.3846154">3</tspan>
                            </text>
                            <text id="4" fill="#858585">
                                <tspan x="2.88532366" y="28.3846154">4</tspan>
                            </text>
                            <text id="5" fill="#858585">
                                <tspan x="2.88532366" y="36.3846154">5</tspan>
                            </text>
                            <text id="6" fill="#858585">
                                <tspan x="2.88532366" y="44.3846154">6</tspan>
                            </text>
                            <text id="7" fill="#858585">
                                <tspan x="2.88532366" y="52.3846154">7</tspan>
                            </text>
                            <text id="8" fill="#858585">
                                <tspan x="2.88532366" y="60.3846154">8</tspan>
                            </text>
                            <text id="9" fill="#858585">
                                <tspan x="2.88532366" y="68.3846154">9</tspan>
                            </text>
                            <text id="10" fill="#858585">
                                <tspan x="0.48493304" y="76.384615">10</tspan>
                            </text>
                            <text id="11" fill="#858585">
                                <tspan x="0.48493304" y="84.384615">11</tspan>
                            </text>
                            <text id="12" fill="#858585">
                                <tspan x="0.48493304" y="92.384615">12</tspan>
                            </text>
                            <text id="13" fill="#DF0E0E">
                                <tspan x="0.48493304" y="100.384615">13</tspan>
                            </text>
                            <text id="14" fill="#858585">
                                <tspan x="0.48493304" y="108.384615">14</tspan>
                            </text>
                            <text id="15" fill="#858585">
                                <tspan x="0.48493304" y="116.384615">15</tspan>
                            </text>
                            <text id="16" fill="#858585">
                                <tspan x="0.48493304" y="124.384615">16</tspan>
                            </text>
                            <text id="17" fill="#858585">
                                <tspan x="0.48493304" y="132.384615">17</tspan>
                            </text>
                            <text id="18" fill="#858585">
                                <tspan x="0.48493304" y="140.384615">18</tspan>
                            </text>
                            <text id="19" fill="#858585">
                                <tspan x="0.48493304" y="148.384615">19</tspan>
                            </text>
                            <text id="20" fill="#858585">
                                <tspan x="0.48493304" y="156.384615">20</tspan>
                            </text>
                            <text id="21" fill="#858585">
                                <tspan x="0.48493304" y="164.384615">21</tspan>
                            </text>
                            <text id="22" fill="#858585">
                                <tspan x="0.48493304" y="172.384615">22</tspan>
                            </text>
                            <text id="23" fill="#858585">
                                <tspan x="0.48493304" y="180.384615">23</tspan>
                            </text>
                            <text id="24" fill="#858585">
                                <tspan x="0.48493304" y="188.384615">24</tspan>
                            </text>
                            <text id="25" fill="#858585">
                                <tspan x="0.48493304" y="196.384615">25</tspan>
                            </text>
                        </g>
                        <g id="//app.js-//Include-l" transform="translate(14.000000, 26.000000)" font-size="3" font-family="AndaleMono, Andale Mono" fill="#E2E7ED" font-weight="normal">
                            <text id="//app.js">
                                <tspan x="0" y="3">//app.js</tspan>
                            </text>
                            <text id="//Include-libraries-and-frameworks-to-be-used">
                                <tspan x="0" y="19">//Include libraries and frameworks to be used</tspan>
                            </text>
                            <text id="var-express-=-require(‘express’);">
                                <tspan x="0" y="27">var express = require(‘express’);</tspan>
                            </text>
                            <text id="var-passport-=-require(‘passport’);">
                                <tspan x="0" y="35">var passport = require(‘passport’);</tspan>
                            </text>
                            <text id="var-expressSession-=-require(‘express-session’);">
                                <tspan x="0" y="43">var expressSession = require(‘express-session’);</tspan>
                            </text>
                            <text id="var-flash-=-require(‘connect-flash’);">
                                <tspan x="0" y="51">var flash = require(‘connect-flash’);</tspan>
                            </text>
                            <text id="var-bodyParser-=-require(‘body-parser’);">
                                <tspan x="0" y="59">var bodyParser = require(‘body-parser’);</tspan>
                            </text>
                            <text id="//Include-mongodb-database">
                                <tspan x="0" y="75">//Include mongodb database</tspan>
                            </text>
                            <text id="var-db-=-require(‘./db’);">
                                <tspan x="0" y="83">var db = require(‘./db’);</tspan>
                            </text>
                            <text id="//Start-the-express">
                                <tspan x="0" y="99">//Start the express </tspan>
                                <tspan x="36.0058594" y="99">app</tspan>
                            </text>
                            <text id="var-app-=-express();">
                                <tspan x="0" y="107">var app = express();</tspan>
                            </text>
                            <text id="//Include-all-controllers">
                                <tspan x="0" y="115">//Include all controllers</tspan>
                            </text>
                            <text id="var-UserController-=-require(‘./user/UserController’);">
                                <tspan x="0" y="123">var UserController = require(‘./user/UserController’);</tspan>
                            </text>
                            <text id="var-face_recognize-=-require(‘./user/face_recognize’);">
                                <tspan x="0" y="131">var face_recognize = require(‘./user/face_recognize’);</tspan>
                            </text>
                            <text id="var-AccountController-=-require(‘./user/AccountController’);">
                                <tspan x="0" y="139">var AccountController = require(‘./user/AccountController’);</tspan>
                            </text>
                            <text id="//Use-bodyParser-to-obtain-req.user.body-information">
                                <tspan x="0" y="163">//Use bodyParser to obtain req.user.body information</tspan>
                            </text>
                            <text id="app.use(bodyParser.urlencoded({-extended:-true-}));">
                                <tspan x="0" y="171">app.use(bodyParser.urlencoded({ extended: true }));</tspan>
                            </text>
                            <text id="//Establish-a-login-session-using-passportjs">
                                <tspan x="0" y="179">//Establish a login session using passportjs</tspan>
                            </text>
                            <text id="app.use(expressSession({">
                                <tspan x="0" y="187">app.use(expressSession({</tspan>
                            </text>
                            <text id="secret:-‘secret’,">
                                <tspan x="0" y="195">secret: ‘secret’,</tspan>
                            </text>
                        </g>
                    </g>
                </g>
            </g>
        </g>
    </g>
</svg>