<?xml version="1.0" encoding="UTF-8"?>
<svg width="435px" height="376px" viewBox="0 0 435 376" version="1.1" xmlns="http://www.w3.org/2000/svg" xmlns:xlink="http://www.w3.org/1999/xlink">
    <!-- Generator: Sketch 41.2 (35397) - http://www.bohemiancoding.com/sketch -->
    <title>imac</title>
    <desc>Created with Sketch.</desc>
    <defs>
        <path d="M15.8365384,45.2289521 C18.0576922,36.7246766 19.8173077,0 19.8173077,0 L110.682692,0 C110.682692,0 112.555584,36.5796886 115.213589,45.2289521 C117.871595,53.8782155 125.221154,58.4256219 129.663462,61.7642289 L0.836538462,61.7642289 C5.27884615,58.4256219 13.6153846,53.7332275 15.8365384,45.2289521 Z" id="path-1"></path>
        <path d="M0,10.016582 C0,4.48457654 4.4828063,0 10.0335589,0 L424.966441,0 C430.507822,0 435,4.48613694 435,10.016582 L435,283.781592 L0,283.781592 L0,10.016582 Z M0,283.781592 L435,283.781592 L435,317.171716 C435,322.701062 430.517195,327.183483 424.966441,327.183483 L10.0335589,327.183483 C4.49217732,327.183483 0,322.702189 0,317.171716 L0,283.781592 Z" id="path-3"></path>
        <path d="M0,10.016582 C0,4.48457654 4.4828063,0 10.0335589,0 L424.966441,0 C430.507822,0 435,4.48613694 435,10.016582 L435,283.781592 L0,283.781592 L0,10.016582 Z M0,283.781592 L435,283.781592 L435,317.171716 C435,322.701062 430.517195,327.183483 424.966441,327.183483 L10.0335589,327.183483 C4.49217732,327.183483 0,322.702189 0,317.171716 L0,283.781592 Z" id="path-5"></path>
        <path d="M0,10.016582 C0,4.48457654 4.4828063,0 10.0335589,0 L424.966441,0 C430.507822,0 435,4.48613694 435,10.016582 L435,283.781592 L0,283.781592 L0,10.016582 Z M0,283.781592 L435,283.781592 L435,317.171716 C435,322.701062 430.517195,327.183483 424.966441,327.183483 L10.0335589,327.183483 C4.49217732,327.183483 0,322.702189 0,317.171716 L0,283.781592 Z" id="path-7"></path>
        <path d="M0,10.016582 C0,4.48457654 4.4828063,0 10.0335589,0 L424.966441,0 C430.507822,0 435,4.48613694 435,10.016582 L435,283.781592 L0,283.781592 L0,10.016582 Z M0,283.781592 L435,283.781592 L435,317.171716 C435,322.701062 430.517195,327.183483 424.966441,327.183483 L10.0335589,327.183483 C4.49217732,327.183483 0,322.702189 0,317.171716 L0,283.781592 Z" id="path-9"></path>
        <path d="M0,10.016582 C0,4.48457654 4.4828063,0 10.0335589,0 L424.966441,0 C430.507822,0 435,4.48613694 435,10.016582 L435,283.781592 L0,283.781592 L0,10.016582 Z M0,283.781592 L435,283.781592 L435,317.171716 C435,322.701062 430.517195,327.183483 424.966441,327.183483 L10.0335589,327.183483 C4.49217732,327.183483 0,322.702189 0,317.171716 L0,283.781592 Z" id="path-11"></path>
    </defs>
    <g id="Page-1" stroke="none" stroke-width="1" fill="none" fill-rule="evenodd">
        <g id="imac">
            <g id="Page-1">
                <g id="iMac">
                    <g id="Page-1">
                        <g id="Apple-Device-Family">
                            <g id="//-iMac-27">
                                <g id="::-stand" transform="translate(150.576923, 305.482537)">
                                    <rect id="Rectangle-80" fill="#B2B2B2" x="2.84217094e-14" y="66.7721393" width="133.846154" height="3.33860697"></rect>
                                    <path d="M1.02321657,64.0922537 C1.51412666,62.8065211 3.03613542,61.7642289 4.42210891,61.7642289 L129.424045,61.7642289 C130.810291,61.7642289 132.339571,62.8262778 132.822937,64.0922537 L133.846154,66.7721393 L2.84217094e-14,66.7721393 L1.02321657,64.0922537 Z" id="Rectangle-77" fill="#C3C3C3"></path>
                                    <g id="Mask" transform="translate(1.673077, 0.000000)" fill="#D8D8D8">
                                        <path d="M15.8365384,45.2289521 C18.0576922,36.7246766 19.8173077,0 19.8173077,0 L110.682692,0 C110.682692,0 112.555584,36.5796886 115.213589,45.2289521 C117.871595,53.8782155 125.221154,58.4256219 129.663462,61.7642289 L0.836538462,61.7642289 C5.27884615,58.4256219 13.6153846,53.7332275 15.8365384,45.2289521 Z" id="path-1"></path>
                                    </g>
                                    <g id="Rectangle-77-Clipped" transform="translate(1.673077, 0.000000)">
                                        <g>
                                            <mask id="mask-2" fill="white">
                                                <use xlink:href="#path-1"></use>
                                            </mask>
                                            <g id="path-1"></g>
                                            <rect id="Rectangle-77" fill="#C1C1C1" mask="url(#mask-2)" x="15.0576923" y="21.7009453" width="100.384615" height="3.33860697"></rect>
                                        </g>
                                    </g>
                                </g>
                                <g id="::-base">
                                    <g id="Combined-Shape" fill="#D8D8D8">
                                        <path d="M0,10.016582 C0,4.48457654 4.4828063,0 10.0335589,0 L424.966441,0 C430.507822,0 435,4.48613694 435,10.016582 L435,283.781592 L0,283.781592 L0,10.016582 Z M0,283.781592 L435,283.781592 L435,317.171716 C435,322.701062 430.517195,327.183483 424.966441,327.183483 L10.0335589,327.183483 C4.49217732,327.183483 0,322.702189 0,317.171716 L0,283.781592 Z" id="path-3"></path>
                                    </g>
                                    <g id="Combined-Shape-Clipped">
                                        <mask id="mask-4" fill="white">
                                            <use xlink:href="#path-3"></use>
                                        </mask>
                                        <g id="path-3"></g>
                                        <rect id="Combined-Shape" fill="#000000" mask="url(#mask-4)" x="0" y="0" width="435" height="283.781592"></rect>
                                    </g>
                                    <g id="logo-Clipped">
                                        <mask id="mask-6" fill="white">
                                            <use xlink:href="#path-5"></use>
                                        </mask>
                                        <g id="path-3"></g>
                                        <path d="M216.261277,301.461696 C216.838537,301.681916 217.729862,301.974892 217.729862,301.974892 L219.699638,301.31013 C219.699638,301.31013 220.275638,301.148904 220.798217,301.148904 C221.320796,301.148904 222.506023,301.440324 223.033973,301.823689 C223.561924,302.207055 224.004254,302.805876 224.004254,302.805876 C224.004254,302.805876 222.83617,303.502565 222.48596,304.523396 C222.135751,305.544226 222.202039,305.894902 222.202039,305.894902 C222.202039,305.894902 222.176539,307.448316 223.013546,308.317317 C223.850553,309.186316 224.433418,309.383276 224.433418,309.383276 C224.433418,309.383276 224.124593,310.510676 223.537651,311.390032 C222.950707,312.269388 222.550723,312.77848 222.550723,312.77848 C222.550723,312.77848 221.872787,313.518444 221.359096,313.673153 C220.845404,313.827863 221.028916,313.815258 220.775866,313.815258 C220.522818,313.815258 219.99898,313.704223 219.99898,313.704223 L218.987812,313.333429 C218.987812,313.333429 218.393574,313.149273 217.981088,313.149273 C217.568603,313.149273 216.792278,313.369195 216.792278,313.369195 C216.792278,313.369195 215.963826,313.684173 215.705075,313.749714 C215.446321,313.815258 215.246959,313.829055 215.151391,313.829055 C215.055822,313.829055 214.715593,313.825284 214.38485,313.631763 C214.054106,313.438244 213.661682,313.188446 213.093873,312.440939 C212.526063,311.69343 211.271529,309.922212 210.89708,307.402889 C210.52263,304.883568 211.445724,303.439238 211.445724,303.439238 C211.445724,303.439238 212.520359,301.234859 214.993547,301.191882 C215.496087,301.183149 215.684017,301.241478 216.261277,301.461696 Z M217.611313,300.984831 C217.611313,300.984831 217.42767,299.421293 218.576255,298.34094 C219.724839,297.260588 220.968596,297.13602 220.968596,297.13602 C220.968596,297.13602 221.22357,298.128232 220.257731,299.608624 C219.291892,301.089017 217.611313,300.984831 217.611313,300.984831 Z" id="logo" fill="#464646" mask="url(#mask-6)"></path>
                                    </g>
                                    <g id="camera-on-light-Clipped">
                                        <mask id="mask-8" fill="white">
                                            <use xlink:href="#path-7"></use>
                                        </mask>
                                        <g id="path-3"></g>
                                        <rect id="camera-on-light" fill="#61FFB2" mask="url(#mask-8)" x="225.865385" y="10.0158209" width="3.34615385" height="3.33860697" rx="1"></rect>
                                    </g>
                                    <g id="camera-Clipped">
                                        <mask id="mask-10" fill="white">
                                            <use xlink:href="#path-9"></use>
                                        </mask>
                                        <g id="path-3"></g>
                                        <rect id="camera" fill="#5C5C5C" mask="url(#mask-10)" x="214.153846" y="8.34651741" width="6.69230769" height="6.67721393" rx="2"></rect>
                                    </g>
                                    <g id="microphone-Clipped">
                                        <mask id="mask-12" fill="white">
                                            <use xlink:href="#path-11"></use>
                                        </mask>
                                        <g id="path-3"></g>
                                        <rect id="microphone" fill="#545454" mask="url(#mask-12)" x="205.034622" y="10.0158209" width="3.34615385" height="3.33860697" rx="1"></rect>
                                    </g>
                                </g>
                                <g id="::-screen" transform="translate(23.423077, 23.370249)" fill="#FFFFFF">
                                    <rect id="Rectangle-71" x="0" y="1.42108547e-14" width="388.153846" height="237.041095"></rect>
                                </g>
                            </g>
                        </g>
                    </g>
                </g>
            </g>
        </g>
    </g>
</svg>