<?xml version="1.0" encoding="UTF-8"?>
<svg width="64px" height="64px" viewBox="0 0 64 64" version="1.1" xmlns="http://www.w3.org/2000/svg" xmlns:xlink="http://www.w3.org/1999/xlink">
    <!-- Generator: Sketch 41.2 (35397) - http://www.bohemiancoding.com/sketch -->
    <title>Profile</title>
    <desc>Created with Sketch.</desc>
    <defs></defs>
    <g id="Page-1" stroke="none" stroke-width="1" fill="none" fill-rule="evenodd">
        <g id="Artboard-1" transform="translate(-1065.000000, -947.000000)">
            <g id="Profile" transform="translate(1065.000000, 947.000000)">
                <path d="M32,64 C49.673112,64 64,49.673112 64,32 C64,14.326888 49.673112,0 32,0 C14.326888,0 0,14.326888 0,32 C0,49.673112 14.326888,64 32,64 Z M32,61 C48.0162577,61 61,48.0162577 61,32 C61,15.9837423 48.0162577,3 32,3 C15.9837423,3 3,15.9837423 3,32 C3,48.0162577 15.9837423,61 32,61 Z" id="Path-Copy-3" fill="#B7A79F"></path>
                <path d="M23.1450368,39.4830347 C20.5948192,41.8575955 19,45.2452958 19,49.0057519 L19,57.9300321 C9.51138971,53.1636174 3,43.342217 3,32 C3,15.9837423 15.9837423,3 32,3 C48.0162577,3 61,15.9837423 61,32 C61,43.342217 54.4886103,53.1636174 45,57.9300321 L45,49.0057519 C45,45.2441718 43.405127,41.8569032 40.8552532,39.4828107 C44.2887003,36.8311188 46.5,32.6737978 46.5,28 C46.5,19.9918711 40.0081289,13.5 32,13.5 C23.9918711,13.5 17.5,19.9918711 17.5,28 C17.5,32.6739294 19.7114243,36.8313529 23.1450368,39.4830347 Z" id="Path-Copy-9" fill="#EBDDD7"></path>
                <path d="M32,43 C40.2842712,43 47,36.2842712 47,28 C47,19.7157288 40.2842712,13 32,13 C23.7157288,13 17,19.7157288 17,28 C17,36.2842712 23.7157288,43 32,43 Z M32,40 C38.627417,40 44,34.627417 44,28 C44,21.372583 38.627417,16 32,16 C25.372583,16 20,21.372583 20,28 C20,34.627417 25.372583,40 32,40 Z" id="Path-Copy-5" fill="#B7A79F"></path>
                <path d="M19,61.2491173 L19,49.0057519 C19,45.2452958 20.5948192,41.8575955 23.1450368,39.4830347 C23.97461,40.1236905 24.8755251,40.6764528 25.833831,41.1273703 C23.4995036,42.9588112 22,45.806419 22,49.0045076 L22,62 L42,62 L42,49.0045076 C42,45.8048223 40.5005518,42.9579282 38.166734,41.1271044 C39.1249407,40.676183 40.025763,40.1234358 40.8552532,39.4828107 C43.405127,41.8569032 45,45.2441718 45,49.0057519 L45,61.2491173 C41.0276995,63.0172853 36.6286124,64 32,64 C27.3713876,64 22.9723005,63.0172853 19,61.2491173 Z" id="Rectangle-1" fill="#B7A79F"></path>
                <path d="M27.6,30 C28.9807119,30 30.1,28.8807119 30.1,27.5 C30.1,26.1192881 28.9807119,25 27.6,25 C26.2192881,25 25.1,26.1192881 25.1,27.5 C25.1,28.8807119 26.2192881,30 27.6,30 Z M36.5,30 C37.8807119,30 39,28.8807119 39,27.5 C39,26.1192881 37.8807119,25 36.5,25 C35.1192881,25 34,26.1192881 34,27.5 C34,28.8807119 35.1192881,30 36.5,30 Z" id="Oval-33" fill="#FF5555"></path>
            </g>
        </g>
    </g>
</svg>