<?xml version="1.0" encoding="UTF-8"?>
<svg width="1500px" height="450px" viewBox="0 0 1500 450" version="1.1" xmlns="http://www.w3.org/2000/svg" xmlns:xlink="http://www.w3.org/1999/xlink">
    <!-- Generator: Sketch 41.2 (35397) - http://www.bohemiancoding.com/sketch -->
    <title>Desktop</title>
    <desc>Created with Sketch.</desc>
    <defs>
        <linearGradient x1="50%" y1="3.27048788%" x2="50%" y2="100%" id="linearGradient-1">
            <stop stop-color="#B23232" offset="0%"></stop>
            <stop stop-color="#F76B1C" offset="100%"></stop>
        </linearGradient>
        <linearGradient x1="48.2074579%" y1="31.2246338%" x2="49.0708246%" y2="107.138397%" id="linearGradient-2">
            <stop stop-color="#912424" offset="0%"></stop>
            <stop stop-color="#F89033" stop-opacity="0" offset="100%"></stop>
        </linearGradient>
        <linearGradient x1="76.0901093%" y1="8.71453039%" x2="76.0901093%" y2="123.951624%" id="linearGradient-3">
            <stop stop-color="#D94D4D" offset="0%"></stop>
            <stop stop-color="#FBDA61" stop-opacity="0" offset="100%"></stop>
        </linearGradient>
        <linearGradient x1="50%" y1="3.57541454%" x2="50%" y2="96.9846142%" id="linearGradient-4">
            <stop stop-color="#EA8B35" offset="0%"></stop>
            <stop stop-color="#E1832D" offset="100%"></stop>
        </linearGradient>
    </defs>
    <g id="Page-1" stroke="none" stroke-width="1" fill="none" fill-rule="evenodd">
        <g id="Desktop">
            <rect id="bg" fill="url(#linearGradient-1)" x="0" y="0" width="1920" height="450"></rect>
            <polygon id="la-mountain" fill="url(#linearGradient-2)" points="505 332.198843 562.366562 275.159818 679.597833 253.117687 808.411427 153.448923 869.854515 197.152562 902.761935 181.907264 1039.00184 67 1150.74854 157.751319 1223.71717 176.517375 1304.5209 242.174786 1391.33155 256.883133 1474.82646 292.845178 1486 333.830083"></polygon>
            <rect id="water" fill="#B23232" x="0" y="330" width="1920" height="120"></rect>
            <ellipse id="Oval-2" fill="#FFFFFF" opacity="0.0599999987" cx="960" cy="491.560384" rx="960" ry="156.813987"></ellipse>
            <ellipse id="Oval-2" fill="#FFFFFF" opacity="0.0599999987" cx="961.753927" cy="491.898693" rx="816.753927" ry="133.415042"></ellipse>
            <ellipse id="Oval-2" fill="#FFFFFF" opacity="0.0599999987" cx="964.298429" cy="491.998811" rx="633.298429" ry="103.447971"></ellipse>
            <ellipse id="Oval-2" fill="#FFFFFF" opacity="0.0599999987" cx="964.35602" cy="491.718195" rx="452.35602" ry="73.8914077"></ellipse>
            <ellipse id="Oval-2" fill="#FFFFFF" opacity="0.0599999987" cx="966.979057" cy="492.698876" rx="283.979057" ry="46.3873836"></ellipse>
            <polyline id="la-mountain-reflection" fill="url(#linearGradient-3)" points="508 329.567169 565.600473 349.3992 683.309751 357.06308 812.648578 391.717142 874.342195 376.521723 907.3838 381.822396 1044.17922 421.774767 1156.38157 390.221233 1229.64773 383.696419 1310.78092 360.867842 1397.94554 355.753863 1481.7809 343.250136 1493 329"></polyline>
            <g id="tree" transform="translate(302.000000, 246.000000)">
                <rect id="Rectangle-2" fill="#D57A26" x="24.4210526" y="48.7407408" width="12.2105263" height="35.2592592"></rect>
                <polygon id="Triangle" fill="url(#linearGradient-4)" points="29 0 58 53.925926 0 53.925926"></polygon>
                <polygon id="Triangle-Copy" fill="url(#linearGradient-4)" points="29 18.9 58 37.8 0 37.8"></polygon>
                <polygon id="Triangle" fill="url(#linearGradient-4)" points="29 0 58 26.962963 0 26.962963"></polygon>
            </g>
            <g id="tree-reflection" opacity="0.397927989" transform="translate(331.000000, 372.000000) scale(1, -1) translate(-331.000000, -372.000000) translate(302.000000, 330.000000)">
                <polygon id="Triangle" fill="url(#linearGradient-4)" points="29 0 58 53.925926 0 53.925926"></polygon>
                <polygon id="Triangle-Copy" fill="url(#linearGradient-4)" points="29 18.9 58 37.8 0 37.8"></polygon>
                <polygon id="Triangle" fill="url(#linearGradient-4)" points="29 0 58 26.962963 0 26.962963"></polygon>
                <rect id="Rectangle-2" fill="#E1832C" x="24.4210526" y="48.7407408" width="12.2105263" height="35.2592592"></rect>
            </g>
        </g>
    </g>
</svg>