<?xml version="1.0" encoding="UTF-8"?>
<svg width="105px" height="208px" viewBox="0 0 105 208" version="1.1" xmlns="http://www.w3.org/2000/svg" xmlns:xlink="http://www.w3.org/1999/xlink">
    <!-- Generator: Sketch 41.2 (35397) - http://www.bohemiancoding.com/sketch -->
    <title>Violin</title>
    <desc>Created with Sketch.</desc>
    <defs></defs>
    <g id="Page-1" stroke="none" stroke-width="1" fill="none" fill-rule="evenodd">
        <g id="Violin" transform="translate(0.000000, -3.000000)">
            <g id="Page-1">
                <g id="Vector_Instrument_1">
                    <g id="g10" transform="translate(53.000000, 105.822749) scale(1, -1) translate(-53.000000, -105.822749) translate(0.000000, 0.822749)">
                        <g id="g14">
                            <g id="g16-Clipped">
                                <g id="g16" transform="translate(0.177663, 0.177264)">
                                    <g id="Violin">
                                        <g id="g22" opacity="0.422271286" transform="translate(14.410258, 0.062895)" fill="#EBD0B3">
                                            <path d="M53.4771561,68.0712452 C53.4771561,77.2459724 59.4999988,84.9777317 67.7251759,87.3793704 L67.7251759,91.8827083 C67.7251759,105.888367 56.9437551,117.578185 42.5919786,120.332234 L41.293603,156.254707 L44.2520801,156.254707 L44.2520801,154.81032 L45.7309633,154.81032 C46.9426384,154.81032 47.9240597,155.790262 47.9240597,156.999236 C47.9240597,158.207501 46.9426384,159.187443 45.7309633,159.187443 L44.2520801,159.187443 L44.2520801,157.743765 L41.2395929,157.743765 L40.984466,164.804739 L44.2520801,164.804739 L44.2520801,163.361061 L45.7309633,163.361061 C46.9426384,163.361061 47.9240597,164.340294 47.9240597,165.549268 C47.9240597,166.758242 46.9426384,167.737475 45.7309633,167.737475 L44.2520801,167.737475 L44.2520801,166.293797 L40.9304558,166.293797 L40.7392883,171.587755 L43.0951258,171.587755 L45.9541105,186.089766 L36.0944153,193.222357 L26.2340095,186.089766 L29.0937048,171.587755 L31.4488317,171.587755 L31.2576642,166.293797 L27.9367505,166.293797 L27.9367505,167.737475 L26.4571567,167.737475 C25.2461923,167.737475 24.2640603,166.758242 24.2640603,165.549268 C24.2640603,164.340294 25.2461923,163.361061 26.4571567,163.361061 L27.9367505,163.361061 L27.9367505,164.804739 L31.203654,164.804739 L30.9485272,157.743765 L27.9367505,157.743765 L27.9367505,159.187443 L26.4571567,159.187443 C25.2461923,159.187443 24.2640603,158.207501 24.2640603,156.999236 C24.2640603,155.790262 25.2461923,154.81032 26.4571567,154.81032 L27.9367505,154.81032 L27.9367505,156.254707 L30.894517,156.254707 L29.5961414,120.332234 C15.2443651,117.578185 4.4636547,105.888367 4.4636547,91.8827083 L4.4636547,87.3793704 C12.6881215,84.9777317 18.710964,77.2459724 18.710964,68.0712452 C18.710964,58.822774 12.5907611,51.0385433 4.26324861,48.7049759 C1.65868015,44.1342754 0.174822319,38.9388794 0.174822319,33.4215632 C0.174822319,24.5616652 3.98111664,16.5228766 10.1638576,10.5942966 L10.1766495,10.5815332 C12.1778677,8.66419317 14.4278169,6.96950279 16.8803041,5.53929755 C16.8831468,5.53787943 16.8859894,5.53575221 16.888832,5.53433404 C18.7294411,4.46150286 20.6830451,3.53899567 22.7297456,2.78453937 C22.7332989,2.78312122 22.7361415,2.78241214 22.7389842,2.78099399 C26.8686288,1.25931803 31.3727911,0.414100074 36.0944153,0.414100074 C55.9317752,0.414100074 72.0140086,15.191942 72.0140086,33.4215632 C72.0140086,38.9388794 70.5294397,44.1342754 67.9248715,48.7049759 C59.5980698,51.0385433 53.4771561,58.822774 53.4771561,68.0712452" id="path24"></path>
                                        </g>
                                        <path d="M101.294256,33.2853494 L101.294256,27.936084 L98.1964898,27.936084 L98.1964898,188.055252 L102.426337,188.055252 L102.426337,33.2853494 L101.294256,33.2853494 Z M103.259941,188.055252 L103.259941,193.285393 L102.426337,193.285393 L98.1964898,193.285393 L97.229992,193.285393 C95.9216675,193.285393 94.8606521,192.226743 94.8606521,190.921335 L94.8606521,188.055252 L94.8606521,0.477136432 L98.1964898,0.477136432 L98.1964898,11.888288 L104.392022,11.888288 L104.392022,13.3177841 L104.392022,27.936084 L104.392022,33.2853494 L103.259941,33.2853494 L103.259941,188.055252 Z" id="path28" fill="#EBD0B3" opacity="0.422271286"></path>
                                        <g id="violin" transform="translate(0.000000, 13.826972)">
                                            <g id="g54" transform="translate(0.197060, 0.417432)" fill="#AB6829">
                                                <path d="M53.4771561,68.0712452 C53.4771561,77.2459724 59.4999988,84.9777317 67.7251759,87.3793704 L67.7251759,91.8827083 C67.7251759,107.935468 53.5631458,120.94913 36.0944153,120.94913 C18.6249741,120.94913 4.4636547,107.935468 4.4636547,91.8827083 L4.4636547,87.3793704 C12.6881215,84.9777317 18.710964,77.2459724 18.710964,68.0712452 C18.710964,58.822774 12.5907611,51.0385433 4.26324861,48.7049759 C1.65868015,44.1342754 0.174822319,38.9388794 0.174822319,33.4215632 C0.174822319,15.191942 16.2563448,0.414100074 36.0944153,0.414100074 C55.9317752,0.414100074 72.0140086,15.191942 72.0140086,33.4215632 C72.0140086,38.9388794 70.5294397,44.1342754 67.9248715,48.7049759 C59.5980698,51.0385433 53.4771561,58.822774 53.4771561,68.0712452" id="path56"></path>
                                            </g>
                                            <polygon id="path58" fill="#121112" points="44.4489275 156.671643 40.2574555 156.671643 40.2574555 158.160701 44.4489275 158.160701"></polygon>
                                            <g id="g60" transform="translate(44.329039, 155.173153)" fill="#29282A">
                                                <path d="M1.59898472,4.43172167 L0.119390847,4.43172167 L0.119390847,0.0545987984 L1.59898472,0.0545987984 C2.80994915,0.0545987984 3.79208111,1.0345411 3.79208111,2.24351478 C3.79208111,3.45177937 2.80994915,4.43172167 1.59898472,4.43172167" id="path62"></path>
                                            </g>
                                            <polygon id="path64" fill="#121112" points="44.4489275 165.222384 40.2574555 165.222384 40.2574555 166.711442 44.4489275 166.711442"></polygon>
                                            <g id="g66" transform="translate(44.329039, 163.723398)" fill="#29282A">
                                                <path d="M1.59898472,4.43172167 L0.119390847,4.43172167 L0.119390847,0.0545987984 L1.59898472,0.0545987984 C2.80994915,0.0545987984 3.79208111,1.0345411 3.79208111,2.24351478 C3.79208111,3.45177937 2.80994915,4.43172167 1.59898472,4.43172167" id="path68"></path>
                                            </g>
                                            <polygon id="path70" fill="#121112" points="28.1335979 156.671643 32.3250699 156.671643 32.3250699 158.160701 28.1335979 158.160701"></polygon>
                                            <g id="g72" transform="translate(24.344715, 155.173153)" fill="#29282A">
                                                <path d="M2.3096446,4.43172167 L3.78852781,4.43172167 L3.78852781,0.0545987984 L2.3096446,0.0545987984 C1.0979695,0.0545987984 0.116548209,1.0345411 0.116548209,2.24351478 C0.116548209,3.45177937 1.0979695,4.43172167 2.3096446,4.43172167" id="path74"></path>
                                            </g>
                                            <polygon id="path76" fill="#121112" points="28.1335979 165.222384 32.3250699 165.222384 32.3250699 166.711442 28.1335979 166.711442"></polygon>
                                            <g id="g78" transform="translate(24.344715, 163.723398)" fill="#29282A">
                                                <path d="M2.3096446,4.43172167 L3.78852781,4.43172167 L3.78852781,0.0545987984 L2.3096446,0.0545987984 C1.0979695,0.0545987984 0.116548209,1.0345411 0.116548209,2.24351478 C0.116548209,3.45177937 1.0979695,4.43172167 2.3096446,4.43172167" id="path80"></path>
                                            </g>
                                            <g id="g82" transform="translate(28.372238, 87.062342)" fill="#29282A">
                                                <polygon id="path84" points="15.6345174 0 0.203248726 0 3.27401007 84.9429867 12.563756 84.9429867"></polygon>
                                            </g>
                                            <g id="g86" transform="translate(26.252694, 171.616968)" fill="#AB6829">
                                                <polygon id="path88" points="19.8984767 14.8905849 10.0387815 22.0224659 0.17837563 14.8905849 3.03807099 0.388573357 17.0394919 0.388573357"></polygon>
                                            </g>
                                            <g id="g90" transform="translate(28.466968, 10.103474)" fill="#29282A">
                                                <polygon id="path92" points="9.94923833 0 5.69949226 0 0.386598975 23.5363421 15.2614209 23.5363421"></polygon>
                                            </g>
                                            <polygon id="path94" fill="#FBD2A6" points="43.729029 48.3795094 28.8542071 48.3795094 28.8542071 45.5268988 43.729029 45.5268988"></polygon>
                                            <polygon id="path96" fill="#404041" points="44.006897 82.6739444 28.5756284 82.6739444 28.5756284 87.0624126 44.006897 87.0624126"></polygon>
                                            <g id="g98" transform="translate(1.509365, 2.153036)" fill="#29282A">
                                                <path d="M14.9238575,22.690415 L0.223857863,22.690415 C3.46517758,12.1563899 12.248223,3.76802705 23.5015222,0.348865131 L23.5015222,14.1318741 C23.5015222,18.8387171 19.6419285,22.690415 14.9238575,22.690415" id="path100"></path>
                                            </g>
                                            <g id="g102" transform="translate(12.458217, 32.315405)" fill="#231F20">
                                                <path d="M3.5532994,0 C3.12548215,0 2.69482227,0.088634434 2.2869035,0.265903302 C1.1939086,0.743111093 0.460507602,1.86345033 0.461928922,3.05398805 C0.464060902,4.51326536 1.45116748,5.75698376 2.862538,6.07961307 C3.88802021,6.31431704 4.93979683,5.74351129 5.25604048,4.78129589 C5.41025366,4.30905163 5.57370546,3.14262249 3.74659889,2.51012716 L3.35218266,3.64606607 C4.25756335,3.95947743 4.15451766,4.27359786 4.11045675,4.40761312 C3.98822325,4.77916867 3.5497461,5.00465467 3.13116743,4.90751133 C2.27055832,4.71109743 1.66791874,3.94813221 1.66649742,3.05186082 C1.66578676,2.3328583 2.10923852,1.6564003 2.76944156,1.36780658 C3.31380702,1.13097537 3.89654812,1.14586596 4.40964456,1.40964203 C4.9156344,1.66987273 5.27309632,2.13786254 5.39035521,2.69306863 L10.4623347,26.8299976 C10.6535023,27.7411596 11.239086,28.5083793 12.0698474,28.9352427 C12.8998982,29.3628152 13.8749235,29.389051 14.7440606,29.0096956 C15.8370554,28.5324879 16.5711671,27.4128577 16.5690351,26.2216109 C16.5676138,24.7630426 15.5805072,23.5179061 14.168426,23.1959858 C13.1408119,22.9612819 12.0911672,23.5320876 11.7756342,24.494303 C11.6207104,24.9665473 11.4579693,26.1336855 13.2843652,26.7661808 L13.679492,25.630242 C12.7741114,25.3168306 12.877157,25.0027102 12.921218,24.8686949 C13.0427408,24.4971393 13.4819286,24.2737806 13.8997966,24.3680876 C14.7611164,24.5645015 15.3630453,25.3274667 15.3644666,26.223029 C15.3651773,26.9427406 14.9217255,27.6199077 14.2615225,27.9077923 C13.7178677,28.1453326 13.1358372,28.1304421 12.6213195,27.866666 C12.1153296,27.6064353 11.7578677,27.1384455 11.6413195,26.5825303 L6.56933992,2.44631037 C6.37746175,1.53514839 5.79187803,0.767219658 4.96182729,0.341065301 C4.52121816,0.114161151 4.0386801,0 3.5532994,0" id="path104"></path>
                                            </g>
                                            <g id="g106" transform="translate(43.068329, 32.315405)" fill="#231F20">
                                                <path d="M13.5025377,0 C13.0171571,0 12.5353296,0.114161151 12.0940099,0.341065301 C11.2639591,0.767219658 10.6783754,1.53514839 10.4864972,2.4456013 L5.41451762,26.5832394 C5.29796941,27.1384455 4.94050749,27.6064353 4.43451765,27.866666 C3.92071056,28.1304421 3.33868012,28.1453326 2.79431465,27.9077923 C2.13411162,27.6199077 1.69065986,26.9427406 1.69137051,26.2237381 C1.69279184,25.3274667 2.29472076,24.5645015 3.15604053,24.3680876 C3.57532986,24.2737806 4.01309635,24.4971393 4.13461919,24.8686949 C4.1786801,25.0027102 4.28172578,25.3168306 3.37634509,25.630242 L3.77147199,26.7661808 C5.59786788,26.1336855 5.43512678,24.9665473 5.28020291,24.494303 C4.96466992,23.5320876 3.9164466,22.9612819 2.8874111,23.1959858 C1.47532991,23.5179061 0.488223338,24.7630426 0.486802019,26.22232 C0.484670039,27.4128577 1.2187817,28.5324879 2.31177659,29.0096956 C3.18162428,29.388342 4.15664964,29.3621061 4.98598972,28.9352427 C5.81675114,28.5083793 6.40233487,27.7411596 6.5935024,26.8299976 L11.6661926,2.69306863 C11.7827408,2.13786254 12.1402028,1.66987273 12.6461926,1.40964203 C13.159289,1.14586596 13.7420301,1.13097537 14.2863956,1.36780658 C14.9465986,1.6564003 15.3900504,2.3328583 15.3893397,3.05186082 C15.3879184,3.94813221 14.7852788,4.71109743 13.923959,4.9082204 C13.5053804,5.00252744 13.0676139,4.77845959 12.9453804,4.40761312 C12.9013195,4.27359786 12.7982738,3.95947743 13.7036545,3.64606607 L13.3092382,2.51012716 C11.4821317,3.14262249 11.6455835,4.30905163 11.8005073,4.78129589 C12.1153296,5.74280223 13.1671063,6.31218981 14.1925885,6.08032213 C15.6046697,5.75698376 16.5917763,4.51326536 16.5939082,3.05398805 C16.5953295,1.86345033 15.8619286,0.743111093 14.7689336,0.266612377 C14.3610149,0.088634434 13.930355,0 13.5025377,0" id="path108"></path>
                                            </g>
                                            <polygon id="path110" fill="#121112" points="33.4138008 33.6399576 32.7351206 33.6399576 32.7351206 172.005399 33.4138008 172.005399"></polygon>
                                            <polygon id="path112" fill="#121112" points="35.5585724 33.6399576 34.8798922 33.6399576 34.8798922 172.005399 35.5585724 172.005399"></polygon>
                                            <polygon id="path114" fill="#121112" points="37.7026332 33.6399576 37.023953 33.6399576 37.023953 172.005399 37.7026332 172.005399"></polygon>
                                            <polygon id="path116" fill="#121112" points="39.8474048 33.6399576 39.1687246 33.6399576 39.1687246 172.005399 39.8474048 172.005399"></polygon>
                                            <g id="g118" transform="translate(80.430206, 0.831603)" fill="#AB6829">
                                                <path d="M3.5532994,0 L0.217461924,0 L0.217461924,190.444908 C0.217461924,191.750316 1.27776646,192.808256 2.58609131,192.808256 L3.5532994,192.808256 L3.5532994,0 Z" id="path120"></path>
                                            </g>
                                            <g id="g122" transform="translate(83.527759, 12.190354)" fill="#29282A">
                                                <polygon id="path124" points="3.5532994 21.449533 3.5532994 16.1002676 0.455532983 16.1002676 0.455532983 0.0524715719 6.65106585 0.0524715719 6.65106585 1.48196772 6.65106585 16.1002676 6.65106585 21.449533"></polygon>
                                            </g>
                                            <polygon id="path126" fill="#121112" points="88.2127844 193.640001 89.0463885 193.640001 89.0463885 33.6399576 88.2127844 33.6399576"></polygon>
                                            <g id="g128" transform="translate(80.518896, 188.409435)" fill="#29282A">
                                                <path d="M8.52791857,0 L0.128629438,0 L0.128629438,2.86679212 C0.128629438,4.17220007 1.18964464,5.23014067 2.49796948,5.23014067 L8.52791857,5.23014067 L8.52791857,0 Z" id="path130"></path>
                                            </g>
                                        </g>
                                    </g>
                                </g>
                            </g>
                        </g>
                    </g>
                </g>
            </g>
        </g>
    </g>
</svg>